<?xml version="1.0" encoding="UTF-8"?>
<svg id="Layer_2" data-name="Layer 2" xmlns="http://www.w3.org/2000/svg" viewBox="0 0 280.25 47.08">
  <defs>
    <style>
      .cls-1 {
        stroke-width: 1.74px;
      }

      .cls-1, .cls-2 {
        stroke: #000;
        stroke-miterlimit: 10;
      }

      .cls-2 {
        fill: none;
        stroke-width: 2.48px;
      }
    </style>
  </defs>
  <g id="Layer_1-2" data-name="Layer 1">
    <g>
      <g>
        <path class="cls-1" d="M144.92,7.03v4c0,.35.38.57.68.39l3.46-2,3.46-2c.3-.17.3-.61,0-.78l-3.46-2-3.46-2c-.3-.17-.68.04-.68.39v4Z"/>
        <path class="cls-1" d="M144.92,8.42c-6.92,2.7-11.67,9.76-10.86,17.79.81,7.96,7.18,14.4,15.12,15.29,10.35,1.16,19.14-6.95,19.14-17.07,0-6.99-4.2-13.01-10.2-15.69-.51-.23-.83-.75-.83-1.31h0c0-1.06,1.09-1.75,2.06-1.32,7.51,3.38,12.59,11.24,11.79,20.17-.88,9.76-8.92,17.57-18.7,18.19-11.65.73-21.37-8.54-21.37-20.04,0-8.9,5.82-16.45,13.85-19.08v3.08Z"/>
      </g>
      <path d="M.65,21.72L14.98,4.22c.55-.67,1.36-1.05,2.23-1.05h0c2.43,0,3.76,2.82,2.23,4.7l-10.45,12.77h21.94c1.61,0,2.91,1.3,2.91,2.91h0c0,1.61-1.3,2.91-2.91,2.91H8.98s10.45,12.77,10.45,12.77c1.54,1.88.2,4.7-2.23,4.7h0c-.86,0-1.68-.39-2.23-1.05L.65,25.36c-.87-1.06-.87-2.59,0-3.65Z"/>
      <path d="M102.41,25.36l-14.33,17.5c-.55.67-1.36,1.05-2.23,1.05h0c-2.43,0-3.76-2.82-2.23-4.7l10.45-12.77h-21.94c-1.61,0-2.91-1.3-2.91-2.91h0c0-1.61,1.3-2.91,2.91-2.91h21.94s-10.45-12.77-10.45-12.77c-1.54-1.88-.2-4.7,2.23-4.7h0c.86,0,1.68.39,2.23,1.05l14.33,17.5c.87,1.06.87,2.59,0,3.65Z"/>
      <g>
        <rect x="240.6" y="16.11" width="39.65" height="29.73" rx="6.88" ry="6.88"/>
        <path class="cls-2" d="M248.04,21.06v-7.43c0-6.84,5.55-12.39,12.39-12.39h0c6.84,0,12.39,5.55,12.39,12.39v7.43"/>
      </g>
      <g>
        <circle cx="208.39" cy="4.96" r="4.96"/>
        <circle cx="208.39" cy="17.35" r="4.96"/>
        <circle cx="208.39" cy="29.73" r="4.96"/>
        <circle cx="208.39" cy="42.12" r="4.96"/>
      </g>
    </g>
  </g>
</svg>