<?xml version="1.0" encoding="UTF-8"?>
<svg id="Layer_2" data-name="Layer 2" xmlns="http://www.w3.org/2000/svg" viewBox="0 0 314.9 74.88">
  <g id="Layer_1-2" data-name="Layer 1">
    <g>
      <g>
        <path d="M134.95,11.01c0-2.03,1.64-3.67,3.67-3.67h66.04c1.83,0,3.52-1.25,3.82-3.05.37-2.3-1.39-4.29-3.62-4.29h-73.58c-2.03,0-3.67,1.64-3.67,3.67v39.49c0,2.03,1.64,3.67,3.67,3.67h0c2.03,0,3.67-1.64,3.67-3.67V11.01Z"/>
        <path d="M197.2,63.86c0,2.03-1.64,3.67-3.67,3.67h-66.04c-1.83,0-3.52,1.25-3.82,3.05-.37,2.3,1.39,4.29,3.62,4.29h73.58c2.03,0,3.67-1.64,3.67-3.67V31.72c0-2.03-1.64-3.67-3.67-3.67h0c-2.03,0-3.67,1.64-3.67,3.67v32.14Z"/>
      </g>
      <g>
        <path d="M255.09,0h0c-4.43,0-6.87,5.15-4.06,8.57l20.69,25.27c1.58,1.93,1.58,4.72,0,6.65l-20.69,25.27c-2.81,3.43-.37,8.57,4.06,8.57h0c1.57,0,3.06-.71,4.06-1.92l26.14-31.92c1.58-1.93,1.58-4.72,0-6.65l-26.14-31.92c-1-1.22-2.49-1.92-4.06-1.92Z"/>
        <path d="M309.64,74.34h0c4.43,0,6.87-5.15,4.06-8.57l-20.69-25.27c-1.58-1.93-1.58-4.72,0-6.65l20.69-25.27c2.81-3.43.37-8.57-4.06-8.57h0c-1.57,0-3.06.71-4.06,1.92l-26.14,31.92c-1.58,1.93-1.58,4.72,0,6.65l26.14,31.92c1,1.22,2.49,1.92,4.06,1.92Z"/>
      </g>
      <path d="M97.2,74.34H4.96c-2.74,0-4.96-2.22-4.96-4.96h0c0-2.74,2.22-4.96,4.96-4.96h92.25c2.74,0,4.96,2.22,4.96,4.96h0c0,2.74-2.22,4.96-4.96,4.96Z"/>
    </g>
  </g>
</svg>